<?xml version="1.0"?>
<svg xmlns="http://www.w3.org/2000/svg" fill="none" viewBox="0 0 512 512" height="512" width="512">
  <path fill="rgb(254,205,34)" d="M105.06666666666666 405.8677333333333c-19.2 -20.621866666666666 -34.4 -43.821866666666665 -45.6 -69.6C48.266666666666666 310.4896 42.666666666666664 283.55626666666666 42.666666666666664 255.4677333333333c0 -28.4448 5.422186666666666 -55.5552 16.266666666666666 -81.33333333333333 10.844479999999999 -25.778133333333333 26.222186666666666 -48.8 46.13333333333333 -69.06666666666666l22.93333333333333 22.4c-17.066666666666666 17.066666666666666 -30.222186666666666 36.62186666666666 -39.46666666666667 58.666666666666664s-13.866666666666667 45.155199999999994 -13.866666666666667 69.33333333333333c0 23.821866666666665 4.8 46.57813333333333 14.4 68.26666666666667 9.6 21.688533333333332 22.57813333333333 41.421866666666666 38.93333333333333 59.199999999999996l-22.93333333333333 22.93333333333333Zm97.6 -27.199999999999996c-7.466666666666666 0 -13.778133333333333 -2.578133333333333 -18.93333333333333 -7.7333333333333325 -5.1552 -5.1552 -7.7333333333333325 -11.466666666666665 -7.7333333333333325 -18.93333333333333s2.578133333333333 -13.778133333333333 7.7333333333333325 -18.93333333333333c5.1552 -5.1552 11.466666666666665 -7.7333333333333325 18.93333333333333 -7.7333333333333325s13.778133333333333 2.578133333333333 18.93333333333333 7.7333333333333325c5.1552 5.1552 7.7333333333333325 11.466666666666665 7.7333333333333325 18.93333333333333s-2.578133333333333 13.778133333333333 -7.7333333333333325 18.93333333333333c-5.1552 5.1552 -11.466666666666665 7.7333333333333325 -18.93333333333333 7.7333333333333325Zm79.46666666666667 -106.66666666666666v-42.13333333333333l-35.733333333333334 21.333333333333332 -16 -27.733333333333334 35.733333333333334 -20.799999999999997 -35.733333333333334 -20.799999999999997 16 -27.733333333333334 35.733333333333334 21.333333333333332v-42.13333333333333h32v42.13333333333333l35.733333333333334 -21.333333333333332 16 27.733333333333334 -35.733333333333334 20.799999999999997 35.733333333333334 20.799999999999997 -16 27.733333333333334 -35.733333333333334 -21.333333333333332v42.13333333333333h-32Zm124.79999999999998 133.86666666666667 -22.93333333333333 -22.93333333333333c16.711466666666666 -17.066666666666666 29.778133333333333 -36.53333333333333 39.199999999999996 -58.39999999999999 9.421866666666666 -21.866666666666664 14.133333333333333 -44.888533333333335 14.133333333333333 -69.06666666666666 0 -24.178133333333335 -4.7114666666666665 -47.199999999999996 -14.133333333333333 -69.06666666666666s-22.48853333333333 -41.511466666666664 -39.199999999999996 -58.93333333333334l22.93333333333333 -22.4c19.2 20.621866666666666 34.4 43.821866666666665 45.6 69.6 11.2 25.778133333333333 16.799999999999997 52.71146666666667 16.799999999999997 80.8 0 28.4448 -5.421866666666666 55.5552 -16.266666666666666 81.33333333333333 -10.8448 25.778133333333333 -26.221866666666664 48.8 -46.13333333333333 69.06666666666666Z" stroke-width="50"/>
</svg>
